<?xml version="1.0" encoding="utf-8"?>
<!-- Generator: Adobe Illustrator 28.0.0, SVG Export Plug-In . SVG Version: 6.00 Build 0)  -->
<svg version="1.1" id="Layer_1" xmlns="http://www.w3.org/2000/svg" xmlns:xlink="http://www.w3.org/1999/xlink" x="0px" y="0px"
	 viewBox="0 0 512 512" style="enable-background:new 0 0 512 512;" xml:space="preserve">
<g id="_x34_8_Calendar_x2C__Time_x2C__Date_x2C__Year_x2C__Schedule">
	<g>
		<g id="XMLID_38_">
			<path d="M441,41h-20V31c0-16.5-13.5-30-30-30s-30,13.5-30,30v10h-30V31c0-16.5-13.5-30-30-30s-30,13.5-30,30v10h-30V31
				c0-16.5-13.5-30-30-30s-30,13.5-30,30v10h-30V31c0-16.5-13.5-30-30-30S91,14.5,91,31v10H71C32.4,41,1,72.4,1,111v330
				c0,38.6,31.4,70,70,70h370c38.6,0,70-31.4,70-70V111C511,72.4,479.6,41,441,41z M381,31c0-5.5,4.5-10,10-10s10,4.5,10,10v40
				c0,5.5-4.5,10-10,10s-10-4.5-10-10V31z M291,31c0-5.5,4.5-10,10-10s10,4.5,10,10v40c0,5.5-4.5,10-10,10s-10-4.5-10-10V31z
				 M201,31c0-5.5,4.5-10,10-10s10,4.5,10,10v40c0,5.5-4.5,10-10,10s-10-4.5-10-10V31z M111,31c0-5.5,4.5-10,10-10s10,4.5,10,10v40
				c0,5.5-4.5,10-10,10s-10-4.5-10-10V31z M491,441c0,27.6-22.4,50-50,50H71c-27.6,0-50-22.4-50-50V141h470V441z M491,121H21v-10
				c0-27.6,22.4-50,50-50h20v10c0,16.5,13.5,30,30,30s30-13.5,30-30V61h30v10c0,16.5,13.5,30,30,30s30-13.5,30-30V61h30v10
				c0,16.5,13.5,30,30,30s30-13.5,30-30V61h30v10c0,16.5,13.5,30,30,30s30-13.5,30-30V61h20c27.6,0,50,22.4,50,50V121z"/>
			<path d="M141,251h50c5.5,0,10-4.5,10-10v-50c0-5.5-4.5-10-10-10h-50c-5.5,0-10,4.5-10,10v50C131,246.5,135.5,251,141,251z"/>
			<path d="M231,251h50c5.5,0,10-4.5,10-10v-50c0-5.5-4.5-10-10-10h-50c-5.5,0-10,4.5-10,10v50C221,246.5,225.5,251,231,251z"/>
			<path d="M321,251h50c5.5,0,10-4.5,10-10v-50c0-5.5-4.5-10-10-10h-50c-5.5,0-10,4.5-10,10v50C311,246.5,315.5,251,321,251z"/>
			<path d="M411,251h50c5.5,0,10-4.5,10-10v-50c0-5.5-4.5-10-10-10h-50c-5.5,0-10,4.5-10,10v50C401,246.5,405.5,251,411,251z"/>
			<path d="M51,351h50c5.5,0,10-4.5,10-10v-50c0-5.5-4.5-10-10-10H51c-5.5,0-10,4.5-10,10v50C41,346.5,45.5,351,51,351z"/>
			<path d="M141,351h50c5.5,0,10-4.5,10-10v-50c0-5.5-4.5-10-10-10h-50c-5.5,0-10,4.5-10,10v50C131,346.5,135.5,351,141,351z"/>
			<path d="M231,351h50c5.5,0,10-4.5,10-10v-50c0-5.5-4.5-10-10-10h-50c-5.5,0-10,4.5-10,10v50C221,346.5,225.5,351,231,351z"/>
			<path d="M321,351h50c5.5,0,10-4.5,10-10v-50c0-5.5-4.5-10-10-10h-50c-5.5,0-10,4.5-10,10v50C311,346.5,315.5,351,321,351z"/>
			<path d="M411,351h50c5.5,0,10-4.5,10-10v-50c0-5.5-4.5-10-10-10h-50c-5.5,0-10,4.5-10,10v50C401,346.5,405.5,351,411,351z"/>
			<path d="M51,451h50c5.5,0,10-4.5,10-10v-50c0-5.5-4.5-10-10-10H51c-5.5,0-10,4.5-10,10v50C41,446.5,45.5,451,51,451z"/>
			<path d="M141,451h50c5.5,0,10-4.5,10-10v-50c0-5.5-4.5-10-10-10h-50c-5.5,0-10,4.5-10,10v50C131,446.5,135.5,451,141,451z"/>
			<path d="M231,451h50c5.5,0,10-4.5,10-10v-50c0-5.5-4.5-10-10-10h-50c-5.5,0-10,4.5-10,10v50C221,446.5,225.5,451,231,451z"/>
			<path d="M321,451h50c5.5,0,10-4.5,10-10v-50c0-5.5-4.5-10-10-10h-50c-5.5,0-10,4.5-10,10v50C311,446.5,315.5,451,321,451z"/>
			<path d="M410.9,451h50c5.5,0,10-4.5,10-10v-50c0-5.5-4.5-10-10-10h-50c-5.5,0-10,4.5-10,10v50C400.9,446.5,405.4,451,410.9,451z"
				/>
		</g>
	</g>
</g>
</svg>
