<?xml version="1.0" encoding="utf-8"?>
<!-- Generator: Adobe Illustrator 27.7.0, SVG Export Plug-In . SVG Version: 6.00 Build 0)  -->
<svg version="1.1" id="Capa_1" xmlns="http://www.w3.org/2000/svg" xmlns:xlink="http://www.w3.org/1999/xlink" x="0px" y="0px"
	 viewBox="0 0 512 512" style="enable-background:new 0 0 512 512;" xml:space="preserve">
<style type="text/css">
	.st0{opacity:0.25;fill:#D8CFFF;enable-background:new    ;}
	.st1{opacity:0.5;fill:#D8CFFF;enable-background:new    ;}
	.st2{fill:#D8CFFF;}
	.st3{fill:#2A2929;}
	.st4{fill:#F7ABA5;}
	.st5{fill:#FFFFFF;}
	.st6{fill:#57409B;}
	.st7{fill:#7054E2;}
	.st8{fill:#FCA919;}
	.st9{fill:#70C043;}
	.st10{fill:#FA5382;}
	.st11{fill:#F7AE4D;}
	.st12{fill:#C05DFE;}
	.st13{fill:#75D4FF;}
	.st14{fill:#1AA3BB;}
	.st15{fill:#74D3FF;}
	.st16{fill:#A485F9;}
</style>
<path class="st0" d="M512,256c0,141.4-114.6,256-256,256S0,397.4,0,256S114.6,0,256,0S512,114.6,512,256z"/>
<path class="st1" d="M461,256c0,113.2-91.8,205-205,205S51,369.2,51,256S142.8,51,256,51S461,142.8,461,256z"/>
<path class="st2" d="M398.3,256c0,78.6-63.7,142.3-142.3,142.3S113.7,334.6,113.7,256S177.4,113.7,256,113.7S398.3,177.4,398.3,256z
	"/>
<g id="Group_1710_00000099638755277223031880000007033117622123593662_" transform="translate(192.526 153.926)">
	<g id="Group_1699_00000100349422928288408660000011957847872776958867_" transform="translate(47.018 1.377)">
		<path id="Path_1019_00000148643870360084299420000005442173707073667721_" class="st10" d="M144,13.1h-0.3c-1-0.1-1.8-1-1.7-2
			s0.9-1.8,1.9-1.7c5,0.1,9.6-2.7,11.7-7.3l0.4-0.9c4-9.5,6.6-15.8,11.4-15.1c1,0.1,1.7,1.1,1.6,2.1c-0.1,1-1.1,1.7-2.1,1.6l0,0
			c-0.7-0.1-1.7,0.9-2.8,2.8c-1.8,3.3-3.3,6.6-4.7,10.1L159,3.6C156.4,9.4,150.5,13.2,144,13.1z"/>
	</g>
	<g id="Group_1700_00000122692531953383347550000006420952140465921920_" transform="translate(44.604 39.632)">
		<path id="Path_1020_00000143594599420054675540000002335818948535933058_" class="st11" d="M145.7,130.1c-0.2,0-0.4,0-0.6-0.1
			c-1-0.3-1.5-1.4-1.2-2.4c0.7-2.5,0.2-5.2-1.3-7.3c-1.9-2.7-4.7-4.7-7.9-5.7c-1-0.3-1.5-1.3-1.2-2.3s1.3-1.5,2.3-1.2h0.1
			c4,1.3,7.4,3.8,9.8,7.2c2.2,3,2.9,7,1.8,10.6C147.2,129.5,146.5,130,145.7,130.1z"/>
	</g>
	<g id="Group_1700_00000041295496828441243790000001372007646779908490_" transform="translate(44.604 39.632)">
		<path id="Path_1020_00000079465449716109023580000002139897411744313765_" class="st11" d="M-33.5-63.1c-0.2,0-0.4,0-0.6-0.1
			c-1-0.3-1.5-1.4-1.2-2.4c0.7-2.5,0.2-5.2-1.3-7.3c-1.9-2.7-4.7-4.7-7.9-5.7c-1-0.3-1.5-1.3-1.2-2.3s1.3-1.5,2.3-1.2h0.1
			c4,1.3,7.4,3.8,9.8,7.2c2.2,3,2.9,7,1.8,10.6C-32-63.7-32.7-63.1-33.5-63.1z"/>
	</g>
	<g id="Group_1701_00000112628058156780282520000018255313035164119180_" transform="translate(25.6)">
		<circle id="Ellipse_276_00000052791047672666521510000004590709118953682595_" class="st12" cx="-39.8" cy="1.4" r="4.4"/>
	</g>
	<g id="Group_1702_00000168082231398786830520000000827247858332098236_" transform="translate(50.666 21.66)">
		<circle id="Ellipse_277_00000158743578871533335920000011349789255241188285_" class="st16" cx="125.4" cy="76.3" r="4.4"/>
	</g>
	<g id="Group_1703_00000088830787523283348800000001090359815596214667_" transform="translate(14.517 41.135)">
		<circle id="Ellipse_278_00000047056334243737254430000012119724337715804578_" class="st9" cx="-47.2" cy="62.1" r="4.4"/>
	</g>
	<g id="Group_1704_00000061473583094489129700000009730513620768861884_" transform="translate(31.674 45.177)">
		<circle id="Ellipse_279_00000065039210386610473700000005487653957803080862_" class="st9" cx="12.7" cy="105.2" r="2.6"/>
	</g>
	<g id="Group_1705_00000008830443625562215520000000492893534692591521_" transform="translate(35.947 46.243)">
		<circle id="Ellipse_280_00000052068492329870196360000014904999243160164018_" class="st14" cx="97.5" cy="145.6" r="4.4"/>
	</g>
	<g id="Group_1706_00000088114047411929325700000015965654558805147016_" transform="translate(31.576 3.987)">
		<circle id="Ellipse_281_00000163790654577105662760000003114240183350230416_" class="st11" cx="48" cy="0.4" r="1.6"/>
	</g>
	<g id="Group_1707_00000139255137486430740370000003648198999405340598_" transform="translate(10.64 16.059)">
		<circle id="Ellipse_282_00000021107956811525414710000010112895362704898196_" class="st11" cx="56.6" cy="26.7" r="4.8"/>
	</g>
	<g id="Group_1709_00000168102979991554880490000003075522719364937379_" transform="translate(0 27.185)">
		<path id="Path_1022_00000141422450079065942380000006925843998685564832_" class="st14" d="M-71.9,61c-4,0-7.9-0.8-11.6-2.2
			c-0.9-0.4-1.4-1.5-1-2.4s1.4-1.4,2.4-1c3.4,1.3,7,2,10.6,2c1.2,0,2.3-0.1,3.4-0.4c2.5-0.8,4.7-2.4,6.2-4.6
			c0.4-0.6,0.8-1.1,1.1-1.6c-0.6-0.1-1.3-0.3-1.9-0.5c-1.1-0.3-2.1-0.8-3.1-1.4c-2.7-1.7-4.4-4.7-4.6-7.8c-0.1-1.3,0.2-2.7,0.8-3.8
			c1.2-2,3.4-3.2,5.7-3.1c2.1,0.1,4,0.9,5.5,2.3c1.4,1.2,2.3,2.7,2.8,4.4c0.3,1.1,0.3,2.2,0.3,3.4c0,1.1-0.2,2.2-0.4,3.3
			c1-0.1,2.1-0.2,3.1-0.5c2.9-0.8,5.5-2.6,7.3-5.1c0.6-0.9,1.7-1.1,2.6-0.6c0.9,0.6,1.1,1.7,0.6,2.6c0,0,0,0.1-0.1,0.1
			c-2.2,3.2-5.5,5.5-9.2,6.5c-1.7,0.5-3.5,0.7-5.4,0.7c-0.6,1.2-1.4,2.4-2.2,3.5c-2,2.8-4.8,4.8-8.1,5.9c-1.4,0.4-2.9,0.6-4.4,0.6
			C-71.6,61-71.8,61-71.9,61z M-63.9,37.7c-0.9,0-1.8,0.4-2.4,1.2c-0.3,0.6-0.4,1.2-0.3,1.8c0.1,2,1.2,3.8,2.9,4.9
			c0.7,0.4,1.4,0.8,2.2,1c0.7,0.2,1.5,0.4,2.2,0.6c0.3-1.1,0.4-2.2,0.5-3.3c0.1-0.8,0-1.5-0.2-2.3c-0.3-1-0.9-1.9-1.7-2.6
			C-61.6,38.3-62.7,37.8-63.9,37.7L-63.9,37.7z"/>
	</g>
</g>
<g>
	<path class="st7" d="M364.7,315.1c-5.5-5.5-22.9-18.4-40.2-28.3c-0.2,0.3-0.4,0.6-0.6,0.9c19.5-31.4,15.6-73.2-11.6-100.4
		c-31.8-31.8-83.3-31.8-115.1,0c-31.8,31.8-31.8,83.3,0,115.1c27,27,68.2,31.1,99.5,12.2c9,15.6,22.1,34,28.3,40.2
		c10.9,10.9,28.7,10.9,39.6,0C375.6,343.7,375.6,326,364.7,315.1L364.7,315.1z M290.9,280.8c-19.9,19.9-52.2,19.9-72.2,0
		c-19.9-19.9-19.9-52.2,0-72.1c19.9-19.9,52.2-19.9,72.1,0C310.8,228.6,310.8,260.9,290.9,280.8z"/>
</g>
<circle class="st7" cx="235.8" cy="245.4" r="5.7"/>
<circle class="st7" cx="256.7" cy="245.4" r="5.7"/>
<circle class="st7" cx="277.5" cy="245.4" r="5.7"/>
</svg>
